# xmcd
#
# Track frame offsets: 
#        150
#        26675
#        47095
#        68356
#        88015
#        101988
#        119885
#        134620
#        159204
#        198122
#        217381
#        236279
#        257019
#        279299
#        300240
#
# Disc length: 4345 seconds
#
# Revision: 0
# Processed by: cddbd v1.5.1PL2 Copyright (c) Steve Scherf et al.
# Submitted via: ExactAudioCopy v0.95b3
#
DISCID=d010f70f
DTITLE=Fleetwood Mac - Live In Boston-CD1
DYEAR=2005
DGENRE=Rock
TTITLE0=The Chain
TTITLE1=Dreams
TTITLE2=Eyes Of The World
TTITLE3=Peacekeeper
TTITLE4=Second Hand News
TTITLE5=Say You Will
TTITLE6=Never Going Back Again
TTITLE7=Rhiannon
TTITLE8=Come
TTITLE9=Gypsy
TTITLE10=Big Love
TTITLE11=Landslide
TTITLE12=Say Goodbye
TTITLE13=What's The World Coming To
TTITLE14=Beautiful Child
EXTD=
EXTT0=
EXTT1=
EXTT2=
EXTT3=
EXTT4=
EXTT5=
EXTT6=
EXTT7=
EXTT8=
EXTT9=
EXTT10=
EXTT11=
EXTT12=
EXTT13=
EXTT14=
PLAYORDER=
